<svg viewBox="0 0 516 170" xmlns="http://www.w3.org/2000/svg" font-family="Segoe UI, Helvetica, Arial, sans-serif">
<rect x="0" y="0" width="516" height="170" fill="#0d1117"/>
<circle cx="10.0" cy="14.0" r="1.1" fill="#8b949e"><animate attributeName="opacity" values="0.15;1;0.15" dur="1.3s" repeatCount="indefinite"/></circle>
<circle cx="10.0" cy="96.0" r="1.1" fill="#8b949e"><animate attributeName="opacity" values="0.15;1;0.15" dur="1.7s" repeatCount="indefinite"/></circle>
<circle cx="10.0" cy="150.0" r="1.1" fill="#8b949e"><animate attributeName="opacity" values="0.15;1;0.15" dur="1.1s" repeatCount="indefinite"/></circle>
<circle cx="506.0" cy="18.0" r="1.1" fill="#8b949e"><animate attributeName="opacity" values="0.15;1;0.15" dur="1.4s" repeatCount="indefinite"/></circle>
<circle cx="506.0" cy="78.0" r="1.1" fill="#8b949e"><animate attributeName="opacity" values="0.15;1;0.15" dur="1.9s" repeatCount="indefinite"/></circle>
<circle cx="506.0" cy="128.0" r="1.1" fill="#8b949e"><animate attributeName="opacity" values="0.15;1;0.15" dur="1.2s" repeatCount="indefinite"/></circle>
<circle cx="40.0" cy="162.0" r="1.1" fill="#8b949e"><animate attributeName="opacity" values="0.15;1;0.15" dur="1.5s" repeatCount="indefinite"/></circle>
<circle cx="456.0" cy="162.0" r="1.1" fill="#8b949e"><animate attributeName="opacity" values="0.15;1;0.15" dur="1.8s" repeatCount="indefinite"/></circle>
<circle cx="258.0" cy="8.0" r="1.1" fill="#8b949e"><animate attributeName="opacity" values="0.15;1;0.15" dur="1.6s" repeatCount="indefinite"/></circle>
<g id="grid">
<rect x="20.00" y="15.00" width="11" height="11" rx="2" ry="2" fill="#ebedf0"/>
<rect x="20.00" y="29.00" width="11" height="11" rx="2" ry="2" fill="#ebedf0"/>
<rect x="20.00" y="43.00" width="11" height="11" rx="2" ry="2" fill="#ebedf0"/>
<rect x="20.00" y="57.00" width="11" height="11" rx="2" ry="2" fill="#ebedf0"/>
<rect x="20.00" y="71.00" width="11" height="11" rx="2" ry="2" fill="#ebedf0"/>
<rect x="20.00" y="85.00" width="11" height="11" rx="2" ry="2" fill="#ebedf0"/>
<rect x="20.00" y="99.00" width="11" height="11" rx="2" ry="2" fill="#9be9a8"/>
<rect x="34.00" y="15.00" width="11" height="11" rx="2" ry="2" fill="#9be9a8"/>
<rect x="34.00" y="29.00" width="11" height="11" rx="2" ry="2" fill="#ebedf0"/>
<rect x="34.00" y="43.00" width="11" height="11" rx="2" ry="2" fill="#ebedf0"/>
<rect x="34.00" y="57.00" width="11" height="11" rx="2" ry="2" fill="#ebedf0"/>
<rect x="34.00" y="71.00" width="11" height="11" rx="2" ry="2" fill="#ebedf0"/>
<rect x="34.00" y="85.00" width="11" height="11" rx="2" ry="2" fill="#ebedf0"/>
<rect x="34.00" y="99.00" width="11" height="11" rx="2" ry="2" fill="#ebedf0"/>
<rect x="48.00" y="15.00" width="11" height="11" rx="2" ry="2" fill="#ebedf0"/>
<rect x="48.00" y="29.00" width="11" height="11" rx="2" ry="2" fill="#ebedf0"/>
<rect x="48.00" y="43.00" width="11" height="11" rx="2" ry="2" fill="#ebedf0"/>
<rect x="48.00" y="57.00" width="11" height="11" rx="2" ry="2" fill="#ebedf0"/>
<rect x="48.00" y="71.00" width="11" height="11" rx="2" ry="2" fill="#9be9a8"/>
<rect x="48.00" y="85.00" width="11" height="11" rx="2" ry="2" fill="#9be9a8"/>
<rect x="48.00" y="99.00" width="11" height="11" rx="2" ry="2" fill="#ebedf0"/>
<rect x="62.00" y="15.00" width="11" height="11" rx="2" ry="2" fill="#ebedf0"/>
<rect x="62.00" y="29.00" width="11" height="11" rx="2" ry="2" fill="#9be9a8"/>
<rect x="62.00" y="43.00" width="11" height="11" rx="2" ry="2" fill="#ebedf0"/>
<rect x="62.00" y="57.00" width="11" height="11" rx="2" ry="2" fill="#ebedf0"/>
<rect x="62.00" y="71.00" width="11" height="11" rx="2" ry="2" fill="#ebedf0"/>
<rect x="62.00" y="85.00" width="11" height="11" rx="2" ry="2" fill="#ebedf0"/>
<rect x="62.00" y="99.00" width="11" height="11" rx="2" ry="2" fill="#ebedf0"/>
<rect x="76.00" y="15.00" width="11" height="11" rx="2" ry="2" fill="#9be9a8"/>
<rect x="76.00" y="29.00" width="11" height="11" rx="2" ry="2" fill="#9be9a8"/>
<rect x="76.00" y="43.00" width="11" height="11" rx="2" ry="2" fill="#ebedf0"/>
<rect x="76.00" y="57.00" width="11" height="11" rx="2" ry="2" fill="#ebedf0"/>
<rect x="76.00" y="71.00" width="11" height="11" rx="2" ry="2" fill="#9be9a8"/>
<rect x="76.00" y="85.00" width="11" height="11" rx="2" ry="2" fill="#ebedf0"/>
<rect x="76.00" y="99.00" width="11" height="11" rx="2" ry="2" fill="#ebedf0"/>
<rect x="90.00" y="15.00" width="11" height="11" rx="2" ry="2" fill="#ebedf0"/>
<rect x="90.00" y="29.00" width="11" height="11" rx="2" ry="2" fill="#ebedf0"/>
<rect x="90.00" y="43.00" width="11" height="11" rx="2" ry="2" fill="#ebedf0"/>
<rect x="90.00" y="57.00" width="11" height="11" rx="2" ry="2" fill="#ebedf0"/>
<rect x="90.00" y="71.00" width="11" height="11" rx="2" ry="2" fill="#ebedf0"/>
<rect x="90.00" y="85.00" width="11" height="11" rx="2" ry="2" fill="#ebedf0"/>
<rect x="90.00" y="99.00" width="11" height="11" rx="2" ry="2" fill="#ebedf0"/>
<rect x="104.00" y="15.00" width="11" height="11" rx="2" ry="2" fill="#ebedf0"/>
<rect x="104.00" y="29.00" width="11" height="11" rx="2" ry="2" fill="#9be9a8"/>
<rect x="104.00" y="43.00" width="11" height="11" rx="2" ry="2" fill="#ebedf0"/>
<rect x="104.00" y="57.00" width="11" height="11" rx="2" ry="2" fill="#ebedf0"/>
<rect x="104.00" y="71.00" width="11" height="11" rx="2" ry="2" fill="#ebedf0"/>
<rect x="104.00" y="85.00" width="11" height="11" rx="2" ry="2" fill="#9be9a8"/>
<rect x="104.00" y="99.00" width="11" height="11" rx="2" ry="2" fill="#9be9a8"/>
<rect x="118.00" y="15.00" width="11" height="11" rx="2" ry="2" fill="#ebedf0"/>
<rect x="118.00" y="29.00" width="11" height="11" rx="2" ry="2" fill="#ebedf0"/>
<rect x="118.00" y="43.00" width="11" height="11" rx="2" ry="2" fill="#ebedf0"/>
<rect x="118.00" y="57.00" width="11" height="11" rx="2" ry="2" fill="#30a14e"/>
<rect x="118.00" y="71.00" width="11" height="11" rx="2" ry="2" fill="#9be9a8"/>
<rect x="118.00" y="85.00" width="11" height="11" rx="2" ry="2" fill="#ebedf0"/>
<rect x="118.00" y="99.00" width="11" height="11" rx="2" ry="2" fill="#ebedf0"/>
<rect x="132.00" y="15.00" width="11" height="11" rx="2" ry="2" fill="#ebedf0"/>
<rect x="132.00" y="29.00" width="11" height="11" rx="2" ry="2" fill="#ebedf0"/>
<rect x="132.00" y="43.00" width="11" height="11" rx="2" ry="2" fill="#ebedf0"/>
<rect x="132.00" y="57.00" width="11" height="11" rx="2" ry="2" fill="#ebedf0"/>
<rect x="132.00" y="71.00" width="11" height="11" rx="2" ry="2" fill="#ebedf0"/>
<rect x="132.00" y="85.00" width="11" height="11" rx="2" ry="2" fill="#ebedf0"/>
<rect x="132.00" y="99.00" width="11" height="11" rx="2" ry="2" fill="#ebedf0"/>
<rect x="146.00" y="15.00" width="11" height="11" rx="2" ry="2" fill="#ebedf0"/>
<rect x="146.00" y="29.00" width="11" height="11" rx="2" ry="2" fill="#ebedf0"/>
<rect x="146.00" y="43.00" width="11" height="11" rx="2" ry="2" fill="#ebedf0"/>
<rect x="146.00" y="57.00" width="11" height="11" rx="2" ry="2" fill="#ebedf0"/>
<rect x="146.00" y="71.00" width="11" height="11" rx="2" ry="2" fill="#ebedf0"/>
<rect x="146.00" y="85.00" width="11" height="11" rx="2" ry="2" fill="#ebedf0"/>
<rect x="146.00" y="99.00" width="11" height="11" rx="2" ry="2" fill="#ebedf0"/>
<rect x="160.00" y="15.00" width="11" height="11" rx="2" ry="2" fill="#ebedf0"/>
<rect x="160.00" y="29.00" width="11" height="11" rx="2" ry="2" fill="#ebedf0"/>
<rect x="160.00" y="43.00" width="11" height="11" rx="2" ry="2" fill="#ebedf0"/>
<rect x="160.00" y="57.00" width="11" height="11" rx="2" ry="2" fill="#ebedf0"/>
<rect x="160.00" y="71.00" width="11" height="11" rx="2" ry="2" fill="#40c463"/>
<rect x="160.00" y="85.00" width="11" height="11" rx="2" ry="2" fill="#ebedf0"/>
<rect x="160.00" y="99.00" width="11" height="11" rx="2" ry="2" fill="#ebedf0"/>
<rect x="174.00" y="15.00" width="11" height="11" rx="2" ry="2" fill="#ebedf0"/>
<rect x="174.00" y="29.00" width="11" height="11" rx="2" ry="2" fill="#ebedf0"/>
<rect x="174.00" y="43.00" width="11" height="11" rx="2" ry="2" fill="#ebedf0"/>
<rect x="174.00" y="57.00" width="11" height="11" rx="2" ry="2" fill="#ebedf0"/>
<rect x="174.00" y="71.00" width="11" height="11" rx="2" ry="2" fill="#ebedf0"/>
<rect x="174.00" y="85.00" width="11" height="11" rx="2" ry="2" fill="#ebedf0"/>
<rect x="174.00" y="99.00" width="11" height="11" rx="2" ry="2" fill="#ebedf0"/>
<rect x="188.00" y="15.00" width="11" height="11" rx="2" ry="2" fill="#216e39"/>
<rect x="188.00" y="29.00" width="11" height="11" rx="2" ry="2" fill="#ebedf0"/>
<rect x="188.00" y="43.00" width="11" height="11" rx="2" ry="2" fill="#30a14e"/>
<rect x="188.00" y="57.00" width="11" height="11" rx="2" ry="2" fill="#40c463"/>
<rect x="188.00" y="71.00" width="11" height="11" rx="2" ry="2" fill="#9be9a8"/>
<rect x="188.00" y="85.00" width="11" height="11" rx="2" ry="2" fill="#ebedf0"/>
<rect x="188.00" y="99.00" width="11" height="11" rx="2" ry="2" fill="#ebedf0"/>
<rect x="202.00" y="15.00" width="11" height="11" rx="2" ry="2" fill="#ebedf0"/>
<rect x="202.00" y="29.00" width="11" height="11" rx="2" ry="2" fill="#ebedf0"/>
<rect x="202.00" y="43.00" width="11" height="11" rx="2" ry="2" fill="#ebedf0"/>
<rect x="202.00" y="57.00" width="11" height="11" rx="2" ry="2" fill="#ebedf0"/>
<rect x="202.00" y="71.00" width="11" height="11" rx="2" ry="2" fill="#ebedf0"/>
<rect x="202.00" y="85.00" width="11" height="11" rx="2" ry="2" fill="#ebedf0"/>
<rect x="202.00" y="99.00" width="11" height="11" rx="2" ry="2" fill="#ebedf0"/>
<rect x="216.00" y="15.00" width="11" height="11" rx="2" ry="2" fill="#ebedf0"/>
<rect x="216.00" y="29.00" width="11" height="11" rx="2" ry="2" fill="#ebedf0"/>
<rect x="216.00" y="43.00" width="11" height="11" rx="2" ry="2" fill="#ebedf0"/>
<rect x="216.00" y="57.00" width="11" height="11" rx="2" ry="2" fill="#ebedf0"/>
<rect x="216.00" y="71.00" width="11" height="11" rx="2" ry="2" fill="#ebedf0"/>
<rect x="216.00" y="85.00" width="11" height="11" rx="2" ry="2" fill="#ebedf0"/>
<rect x="216.00" y="99.00" width="11" height="11" rx="2" ry="2" fill="#ebedf0"/>
<rect x="230.00" y="15.00" width="11" height="11" rx="2" ry="2" fill="#ebedf0"/>
<rect x="230.00" y="29.00" width="11" height="11" rx="2" ry="2" fill="#ebedf0"/>
<rect x="230.00" y="43.00" width="11" height="11" rx="2" ry="2" fill="#ebedf0"/>
<rect x="230.00" y="57.00" width="11" height="11" rx="2" ry="2" fill="#ebedf0"/>
<rect x="230.00" y="71.00" width="11" height="11" rx="2" ry="2" fill="#ebedf0"/>
<rect x="230.00" y="85.00" width="11" height="11" rx="2" ry="2" fill="#ebedf0"/>
<rect x="230.00" y="99.00" width="11" height="11" rx="2" ry="2" fill="#40c463"/>
<rect x="244.00" y="15.00" width="11" height="11" rx="2" ry="2" fill="#9be9a8"/>
<rect x="244.00" y="29.00" width="11" height="11" rx="2" ry="2" fill="#ebedf0"/>
<rect x="244.00" y="43.00" width="11" height="11" rx="2" ry="2" fill="#ebedf0"/>
<rect x="244.00" y="57.00" width="11" height="11" rx="2" ry="2" fill="#40c463"/>
<rect x="244.00" y="71.00" width="11" height="11" rx="2" ry="2" fill="#ebedf0"/>
<rect x="244.00" y="85.00" width="11" height="11" rx="2" ry="2" fill="#ebedf0"/>
<rect x="244.00" y="99.00" width="11" height="11" rx="2" ry="2" fill="#ebedf0"/>
<rect x="258.00" y="15.00" width="11" height="11" rx="2" ry="2" fill="#ebedf0"/>
<rect x="258.00" y="29.00" width="11" height="11" rx="2" ry="2" fill="#ebedf0"/>
<rect x="258.00" y="43.00" width="11" height="11" rx="2" ry="2" fill="#ebedf0"/>
<rect x="258.00" y="57.00" width="11" height="11" rx="2" ry="2" fill="#ebedf0"/>
<rect x="258.00" y="71.00" width="11" height="11" rx="2" ry="2" fill="#ebedf0"/>
<rect x="258.00" y="85.00" width="11" height="11" rx="2" ry="2" fill="#ebedf0"/>
<rect x="258.00" y="99.00" width="11" height="11" rx="2" ry="2" fill="#ebedf0"/>
<rect x="272.00" y="15.00" width="11" height="11" rx="2" ry="2" fill="#ebedf0"/>
<rect x="272.00" y="29.00" width="11" height="11" rx="2" ry="2" fill="#ebedf0"/>
<rect x="272.00" y="43.00" width="11" height="11" rx="2" ry="2" fill="#ebedf0"/>
<rect x="272.00" y="57.00" width="11" height="11" rx="2" ry="2" fill="#ebedf0"/>
<rect x="272.00" y="71.00" width="11" height="11" rx="2" ry="2" fill="#ebedf0"/>
<rect x="272.00" y="85.00" width="11" height="11" rx="2" ry="2" fill="#ebedf0"/>
<rect x="272.00" y="99.00" width="11" height="11" rx="2" ry="2" fill="#ebedf0"/>
<rect x="286.00" y="15.00" width="11" height="11" rx="2" ry="2" fill="#ebedf0"/>
<rect x="286.00" y="29.00" width="11" height="11" rx="2" ry="2" fill="#ebedf0"/>
<rect x="286.00" y="43.00" width="11" height="11" rx="2" ry="2" fill="#ebedf0"/>
<rect x="286.00" y="57.00" width="11" height="11" rx="2" ry="2" fill="#ebedf0"/>
<rect x="286.00" y="71.00" width="11" height="11" rx="2" ry="2" fill="#ebedf0"/>
<rect x="286.00" y="85.00" width="11" height="11" rx="2" ry="2" fill="#ebedf0"/>
<rect x="286.00" y="99.00" width="11" height="11" rx="2" ry="2" fill="#ebedf0"/>
<rect x="300.00" y="15.00" width="11" height="11" rx="2" ry="2" fill="#ebedf0"/>
<rect x="300.00" y="29.00" width="11" height="11" rx="2" ry="2" fill="#ebedf0"/>
<rect x="300.00" y="43.00" width="11" height="11" rx="2" ry="2" fill="#ebedf0"/>
<rect x="300.00" y="57.00" width="11" height="11" rx="2" ry="2" fill="#ebedf0"/>
<rect x="300.00" y="71.00" width="11" height="11" rx="2" ry="2" fill="#ebedf0"/>
<rect x="300.00" y="85.00" width="11" height="11" rx="2" ry="2" fill="#ebedf0"/>
<rect x="300.00" y="99.00" width="11" height="11" rx="2" ry="2" fill="#ebedf0"/>
<rect x="314.00" y="15.00" width="11" height="11" rx="2" ry="2" fill="#ebedf0"/>
<rect x="314.00" y="29.00" width="11" height="11" rx="2" ry="2" fill="#9be9a8"/>
<rect x="314.00" y="43.00" width="11" height="11" rx="2" ry="2" fill="#ebedf0"/>
<rect x="314.00" y="57.00" width="11" height="11" rx="2" ry="2" fill="#ebedf0"/>
<rect x="314.00" y="71.00" width="11" height="11" rx="2" ry="2" fill="#ebedf0"/>
<rect x="314.00" y="85.00" width="11" height="11" rx="2" ry="2" fill="#ebedf0"/>
<rect x="314.00" y="99.00" width="11" height="11" rx="2" ry="2" fill="#ebedf0"/>
<rect x="328.00" y="15.00" width="11" height="11" rx="2" ry="2" fill="#ebedf0"/>
<rect x="328.00" y="29.00" width="11" height="11" rx="2" ry="2" fill="#ebedf0"/>
<rect x="328.00" y="43.00" width="11" height="11" rx="2" ry="2" fill="#ebedf0"/>
<rect x="328.00" y="57.00" width="11" height="11" rx="2" ry="2" fill="#ebedf0"/>
<rect x="328.00" y="71.00" width="11" height="11" rx="2" ry="2" fill="#ebedf0"/>
<rect x="328.00" y="85.00" width="11" height="11" rx="2" ry="2" fill="#ebedf0"/>
<rect x="328.00" y="99.00" width="11" height="11" rx="2" ry="2" fill="#ebedf0"/>
<rect x="342.00" y="15.00" width="11" height="11" rx="2" ry="2" fill="#ebedf0"/>
<rect x="342.00" y="29.00" width="11" height="11" rx="2" ry="2" fill="#ebedf0"/>
<rect x="342.00" y="43.00" width="11" height="11" rx="2" ry="2" fill="#ebedf0"/>
<rect x="342.00" y="57.00" width="11" height="11" rx="2" ry="2" fill="#ebedf0"/>
<rect x="342.00" y="71.00" width="11" height="11" rx="2" ry="2" fill="#ebedf0"/>
<rect x="342.00" y="85.00" width="11" height="11" rx="2" ry="2" fill="#9be9a8"/>
<rect x="342.00" y="99.00" width="11" height="11" rx="2" ry="2" fill="#ebedf0"/>
<rect x="356.00" y="15.00" width="11" height="11" rx="2" ry="2" fill="#ebedf0"/>
<rect x="356.00" y="29.00" width="11" height="11" rx="2" ry="2" fill="#ebedf0"/>
<rect x="356.00" y="43.00" width="11" height="11" rx="2" ry="2" fill="#ebedf0"/>
<rect x="356.00" y="57.00" width="11" height="11" rx="2" ry="2" fill="#ebedf0"/>
<rect x="356.00" y="71.00" width="11" height="11" rx="2" ry="2" fill="#ebedf0"/>
<rect x="356.00" y="85.00" width="11" height="11" rx="2" ry="2" fill="#ebedf0"/>
<rect x="356.00" y="99.00" width="11" height="11" rx="2" ry="2" fill="#ebedf0"/>
<rect x="370.00" y="15.00" width="11" height="11" rx="2" ry="2" fill="#9be9a8"/>
<rect x="370.00" y="29.00" width="11" height="11" rx="2" ry="2" fill="#9be9a8"/>
<rect x="370.00" y="43.00" width="11" height="11" rx="2" ry="2" fill="#ebedf0"/>
<rect x="370.00" y="57.00" width="11" height="11" rx="2" ry="2" fill="#ebedf0"/>
<rect x="370.00" y="71.00" width="11" height="11" rx="2" ry="2" fill="#ebedf0"/>
<rect x="370.00" y="85.00" width="11" height="11" rx="2" ry="2" fill="#ebedf0"/>
<rect x="370.00" y="99.00" width="11" height="11" rx="2" ry="2" fill="#ebedf0"/>
<rect x="384.00" y="15.00" width="11" height="11" rx="2" ry="2" fill="#ebedf0"/>
<rect x="384.00" y="29.00" width="11" height="11" rx="2" ry="2" fill="#ebedf0"/>
<rect x="384.00" y="43.00" width="11" height="11" rx="2" ry="2" fill="#ebedf0"/>
<rect x="384.00" y="57.00" width="11" height="11" rx="2" ry="2" fill="#ebedf0"/>
<rect x="384.00" y="71.00" width="11" height="11" rx="2" ry="2" fill="#ebedf0"/>
<rect x="384.00" y="85.00" width="11" height="11" rx="2" ry="2" fill="#ebedf0"/>
<rect x="384.00" y="99.00" width="11" height="11" rx="2" ry="2" fill="#ebedf0"/>
<rect x="398.00" y="15.00" width="11" height="11" rx="2" ry="2" fill="#ebedf0"/>
<rect x="398.00" y="29.00" width="11" height="11" rx="2" ry="2" fill="#ebedf0"/>
<rect x="398.00" y="43.00" width="11" height="11" rx="2" ry="2" fill="#ebedf0"/>
<rect x="398.00" y="57.00" width="11" height="11" rx="2" ry="2" fill="#ebedf0"/>
<rect x="398.00" y="71.00" width="11" height="11" rx="2" ry="2" fill="#ebedf0"/>
<rect x="398.00" y="85.00" width="11" height="11" rx="2" ry="2" fill="#ebedf0"/>
<rect x="398.00" y="99.00" width="11" height="11" rx="2" ry="2" fill="#ebedf0"/>
<rect x="412.00" y="15.00" width="11" height="11" rx="2" ry="2" fill="#ebedf0"/>
<rect x="412.00" y="29.00" width="11" height="11" rx="2" ry="2" fill="#ebedf0"/>
<rect x="412.00" y="43.00" width="11" height="11" rx="2" ry="2" fill="#9be9a8"/>
<rect x="412.00" y="57.00" width="11" height="11" rx="2" ry="2" fill="#9be9a8"/>
<rect x="412.00" y="71.00" width="11" height="11" rx="2" ry="2" fill="#ebedf0"/>
<rect x="412.00" y="85.00" width="11" height="11" rx="2" ry="2" fill="#9be9a8"/>
<rect x="412.00" y="99.00" width="11" height="11" rx="2" ry="2" fill="#ebedf0"/>
<rect x="426.00" y="15.00" width="11" height="11" rx="2" ry="2" fill="#ebedf0"/>
<rect x="426.00" y="29.00" width="11" height="11" rx="2" ry="2" fill="#ebedf0"/>
<rect x="426.00" y="43.00" width="11" height="11" rx="2" ry="2" fill="#9be9a8"/>
<rect x="426.00" y="57.00" width="11" height="11" rx="2" ry="2" fill="#ebedf0"/>
<rect x="426.00" y="71.00" width="11" height="11" rx="2" ry="2" fill="#ebedf0"/>
<rect x="426.00" y="85.00" width="11" height="11" rx="2" ry="2" fill="#9be9a8"/>
<rect x="426.00" y="99.00" width="11" height="11" rx="2" ry="2" fill="#ebedf0"/>
<rect x="440.00" y="15.00" width="11" height="11" rx="2" ry="2" fill="#ebedf0"/>
<rect x="440.00" y="29.00" width="11" height="11" rx="2" ry="2" fill="#ebedf0"/>
<rect x="440.00" y="43.00" width="11" height="11" rx="2" ry="2" fill="#ebedf0"/>
<rect x="440.00" y="57.00" width="11" height="11" rx="2" ry="2" fill="#ebedf0"/>
<rect x="440.00" y="71.00" width="11" height="11" rx="2" ry="2" fill="#9be9a8"/>
<rect x="440.00" y="85.00" width="11" height="11" rx="2" ry="2" fill="#9be9a8"/>
<rect x="440.00" y="99.00" width="11" height="11" rx="2" ry="2" fill="#ebedf0"/>
<rect x="454.00" y="15.00" width="11" height="11" rx="2" ry="2" fill="#ebedf0"/>
<rect x="454.00" y="29.00" width="11" height="11" rx="2" ry="2" fill="#216e39"/>
<rect x="454.00" y="43.00" width="11" height="11" rx="2" ry="2" fill="#9be9a8"/>
<rect x="454.00" y="57.00" width="11" height="11" rx="2" ry="2" fill="#9be9a8"/>
<rect x="454.00" y="71.00" width="11" height="11" rx="2" ry="2" fill="#ebedf0"/>
<rect x="454.00" y="85.00" width="11" height="11" rx="2" ry="2" fill="#ebedf0"/>
<rect x="454.00" y="99.00" width="11" height="11" rx="2" ry="2" fill="#ebedf0"/>
<rect x="468.00" y="15.00" width="11" height="11" rx="2" ry="2" fill="#ebedf0"/>
<rect x="468.00" y="29.00" width="11" height="11" rx="2" ry="2" fill="#ebedf0"/>
<rect x="468.00" y="43.00" width="11" height="11" rx="2" ry="2" fill="#ebedf0"/>
<rect x="468.00" y="57.00" width="11" height="11" rx="2" ry="2" fill="#ebedf0"/>
<rect x="468.00" y="71.00" width="11" height="11" rx="2" ry="2" fill="#ebedf0"/>
<rect x="468.00" y="85.00" width="11" height="11" rx="2" ry="2" fill="#ebedf0"/>
<rect x="468.00" y="99.00" width="11" height="11" rx="2" ry="2" fill="#30a14e"/>
<rect x="482.00" y="15.00" width="11" height="11" rx="2" ry="2" fill="#40c463"/>
<rect x="482.00" y="29.00" width="11" height="11" rx="2" ry="2" fill="#ebedf0"/>
<rect x="482.00" y="43.00" width="11" height="11" rx="2" ry="2" fill="#ebedf0"/>
<rect x="482.00" y="57.00" width="11" height="11" rx="2" ry="2" fill="#ebedf0"/>
<rect x="482.00" y="71.00" width="11" height="11" rx="2" ry="2" fill="#9be9a8"/>
<rect x="482.00" y="85.00" width="11" height="11" rx="2" ry="2" fill="#40c463"/>
<rect x="482.00" y="99.00" width="11" height="11" rx="2" ry="2" fill="#ebedf0"/>
</g>
<g id="pulses">
<circle cx="25.5" cy="104.5" r="0" fill="none" stroke="#56d364" stroke-width="1.4" opacity="0"><animate attributeName="r" dur="20s" repeatCount="indefinite" keyTimes="0;0.006;0.021;1" values="0;1;8;8"/><animate attributeName="opacity" dur="20s" repeatCount="indefinite" keyTimes="0;0.006;0.021;1" values="0;1;1;0"/></circle>
<circle cx="39.5" cy="20.5" r="0" fill="none" stroke="#56d364" stroke-width="1.4" opacity="0"><animate attributeName="r" dur="20s" repeatCount="indefinite" keyTimes="0;0.005;0.02;1" values="0;1;8;8"/><animate attributeName="opacity" dur="20s" repeatCount="indefinite" keyTimes="0;0.005;0.02;1" values="0;1;1;0"/></circle>
<circle cx="53.5" cy="76.5" r="0" fill="none" stroke="#56d364" stroke-width="1.4" opacity="0"><animate attributeName="r" dur="20s" repeatCount="indefinite" keyTimes="0;0.0247;0.0397;1" values="0;1;8;8"/><animate attributeName="opacity" dur="20s" repeatCount="indefinite" keyTimes="0;0.0247;0.0397;1" values="0;1;1;0"/></circle>
<circle cx="53.5" cy="90.5" r="0" fill="none" stroke="#56d364" stroke-width="1.4" opacity="0"><animate attributeName="r" dur="20s" repeatCount="indefinite" keyTimes="0;0.0257;0.0407;1" values="0;1;8;8"/><animate attributeName="opacity" dur="20s" repeatCount="indefinite" keyTimes="0;0.0257;0.0407;1" values="0;1;1;0"/></circle>
<circle cx="67.5" cy="34.5" r="0" fill="none" stroke="#56d364" stroke-width="1.4" opacity="0"><animate attributeName="r" dur="20s" repeatCount="indefinite" keyTimes="0;0.0374;0.0524;1" values="0;1;8;8"/><animate attributeName="opacity" dur="20s" repeatCount="indefinite" keyTimes="0;0.0374;0.0524;1" values="0;1;1;0"/></circle>
<circle cx="81.5" cy="20.5" r="0" fill="none" stroke="#56d364" stroke-width="1.4" opacity="0"><animate attributeName="r" dur="20s" repeatCount="indefinite" keyTimes="0;0.0521;0.0671;1" values="0;1;8;8"/><animate attributeName="opacity" dur="20s" repeatCount="indefinite" keyTimes="0;0.0521;0.0671;1" values="0;1;1;0"/></circle>
<circle cx="81.5" cy="34.5" r="0" fill="none" stroke="#56d364" stroke-width="1.4" opacity="0"><animate attributeName="r" dur="20s" repeatCount="indefinite" keyTimes="0;0.0531;0.0681;1" values="0;1;8;8"/><animate attributeName="opacity" dur="20s" repeatCount="indefinite" keyTimes="0;0.0531;0.0681;1" values="0;1;1;0"/></circle>
<circle cx="81.5" cy="76.5" r="0" fill="none" stroke="#56d364" stroke-width="1.4" opacity="0"><animate attributeName="r" dur="20s" repeatCount="indefinite" keyTimes="0;0.0561;0.0711;1" values="0;1;8;8"/><animate attributeName="opacity" dur="20s" repeatCount="indefinite" keyTimes="0;0.0561;0.0711;1" values="0;1;1;0"/></circle>
<circle cx="109.5" cy="34.5" r="0" fill="none" stroke="#56d364" stroke-width="1.4" opacity="0"><animate attributeName="r" dur="20s" repeatCount="indefinite" keyTimes="0;0.0845;0.0995;1" values="0;1;8;8"/><animate attributeName="opacity" dur="20s" repeatCount="indefinite" keyTimes="0;0.0845;0.0995;1" values="0;1;1;0"/></circle>
<circle cx="109.5" cy="90.5" r="0" fill="none" stroke="#56d364" stroke-width="1.4" opacity="0"><animate attributeName="r" dur="20s" repeatCount="indefinite" keyTimes="0;0.0885;0.1035;1" values="0;1;8;8"/><animate attributeName="opacity" dur="20s" repeatCount="indefinite" keyTimes="0;0.0885;0.1035;1" values="0;1;1;0"/></circle>
<circle cx="109.5" cy="104.5" r="0" fill="none" stroke="#56d364" stroke-width="1.4" opacity="0"><animate attributeName="r" dur="20s" repeatCount="indefinite" keyTimes="0;0.0895;0.1045;1" values="0;1;8;8"/><animate attributeName="opacity" dur="20s" repeatCount="indefinite" keyTimes="0;0.0895;0.1045;1" values="0;1;1;0"/></circle>
<circle cx="123.5" cy="62.5" r="0" fill="none" stroke="#56d364" stroke-width="1.4" opacity="0"><animate attributeName="r" dur="20s" repeatCount="indefinite" keyTimes="0;0.1022;0.1172;1" values="0;1;8;8"/><animate attributeName="opacity" dur="20s" repeatCount="indefinite" keyTimes="0;0.1022;0.1172;1" values="0;1;1;0"/></circle>
<circle cx="123.5" cy="76.5" r="0" fill="none" stroke="#56d364" stroke-width="1.4" opacity="0"><animate attributeName="r" dur="20s" repeatCount="indefinite" keyTimes="0;0.1032;0.1182;1" values="0;1;8;8"/><animate attributeName="opacity" dur="20s" repeatCount="indefinite" keyTimes="0;0.1032;0.1182;1" values="0;1;1;0"/></circle>
<circle cx="165.5" cy="76.5" r="0" fill="none" stroke="#56d364" stroke-width="1.4" opacity="0"><animate attributeName="r" dur="20s" repeatCount="indefinite" keyTimes="0;0.1503;0.1653;1" values="0;1;8;8"/><animate attributeName="opacity" dur="20s" repeatCount="indefinite" keyTimes="0;0.1503;0.1653;1" values="0;1;1;0"/></circle>
<circle cx="193.5" cy="20.5" r="0" fill="none" stroke="#56d364" stroke-width="1.4" opacity="0"><animate attributeName="r" dur="20s" repeatCount="indefinite" keyTimes="0;0.1777;0.1927;1" values="0;1;8;8"/><animate attributeName="opacity" dur="20s" repeatCount="indefinite" keyTimes="0;0.1777;0.1927;1" values="0;1;1;0"/></circle>
<circle cx="193.5" cy="48.5" r="0" fill="none" stroke="#56d364" stroke-width="1.4" opacity="0"><animate attributeName="r" dur="20s" repeatCount="indefinite" keyTimes="0;0.1797;0.1947;1" values="0;1;8;8"/><animate attributeName="opacity" dur="20s" repeatCount="indefinite" keyTimes="0;0.1797;0.1947;1" values="0;1;1;0"/></circle>
<circle cx="193.5" cy="62.5" r="0" fill="none" stroke="#56d364" stroke-width="1.4" opacity="0"><animate attributeName="r" dur="20s" repeatCount="indefinite" keyTimes="0;0.1807;0.1957;1" values="0;1;8;8"/><animate attributeName="opacity" dur="20s" repeatCount="indefinite" keyTimes="0;0.1807;0.1957;1" values="0;1;1;0"/></circle>
<circle cx="193.5" cy="76.5" r="0" fill="none" stroke="#56d364" stroke-width="1.4" opacity="0"><animate attributeName="r" dur="20s" repeatCount="indefinite" keyTimes="0;0.1817;0.1967;1" values="0;1;8;8"/><animate attributeName="opacity" dur="20s" repeatCount="indefinite" keyTimes="0;0.1817;0.1967;1" values="0;1;1;0"/></circle>
<circle cx="235.5" cy="104.5" r="0" fill="none" stroke="#56d364" stroke-width="1.4" opacity="0"><animate attributeName="r" dur="20s" repeatCount="indefinite" keyTimes="0;0.2308;0.2458;1" values="0;1;8;8"/><animate attributeName="opacity" dur="20s" repeatCount="indefinite" keyTimes="0;0.2308;0.2458;1" values="0;1;1;0"/></circle>
<circle cx="249.5" cy="20.5" r="0" fill="none" stroke="#56d364" stroke-width="1.4" opacity="0"><animate attributeName="r" dur="20s" repeatCount="indefinite" keyTimes="0;0.2405;0.2555;1" values="0;1;8;8"/><animate attributeName="opacity" dur="20s" repeatCount="indefinite" keyTimes="0;0.2405;0.2555;1" values="0;1;1;0"/></circle>
<circle cx="249.5" cy="62.5" r="0" fill="none" stroke="#56d364" stroke-width="1.4" opacity="0"><animate attributeName="r" dur="20s" repeatCount="indefinite" keyTimes="0;0.2435;0.2585;1" values="0;1;8;8"/><animate attributeName="opacity" dur="20s" repeatCount="indefinite" keyTimes="0;0.2435;0.2585;1" values="0;1;1;0"/></circle>
<circle cx="319.5" cy="34.5" r="0" fill="none" stroke="#56d364" stroke-width="1.4" opacity="0"><animate attributeName="r" dur="20s" repeatCount="indefinite" keyTimes="0;0.3199;0.3349;1" values="0;1;8;8"/><animate attributeName="opacity" dur="20s" repeatCount="indefinite" keyTimes="0;0.3199;0.3349;1" values="0;1;1;0"/></circle>
<circle cx="347.5" cy="90.5" r="0" fill="none" stroke="#56d364" stroke-width="1.4" opacity="0"><animate attributeName="r" dur="20s" repeatCount="indefinite" keyTimes="0;0.3553;0.3703;1" values="0;1;8;8"/><animate attributeName="opacity" dur="20s" repeatCount="indefinite" keyTimes="0;0.3553;0.3703;1" values="0;1;1;0"/></circle>
<circle cx="375.5" cy="20.5" r="0" fill="none" stroke="#56d364" stroke-width="1.4" opacity="0"><animate attributeName="r" dur="20s" repeatCount="indefinite" keyTimes="0;0.3817;0.3967;1" values="0;1;8;8"/><animate attributeName="opacity" dur="20s" repeatCount="indefinite" keyTimes="0;0.3817;0.3967;1" values="0;1;1;0"/></circle>
<circle cx="375.5" cy="34.5" r="0" fill="none" stroke="#56d364" stroke-width="1.4" opacity="0"><animate attributeName="r" dur="20s" repeatCount="indefinite" keyTimes="0;0.3827;0.3977;1" values="0;1;8;8"/><animate attributeName="opacity" dur="20s" repeatCount="indefinite" keyTimes="0;0.3827;0.3977;1" values="0;1;1;0"/></circle>
<circle cx="417.5" cy="48.5" r="0" fill="none" stroke="#56d364" stroke-width="1.4" opacity="0"><animate attributeName="r" dur="20s" repeatCount="indefinite" keyTimes="0;0.4308;0.4458;1" values="0;1;8;8"/><animate attributeName="opacity" dur="20s" repeatCount="indefinite" keyTimes="0;0.4308;0.4458;1" values="0;1;1;0"/></circle>
<circle cx="417.5" cy="62.5" r="0" fill="none" stroke="#56d364" stroke-width="1.4" opacity="0"><animate attributeName="r" dur="20s" repeatCount="indefinite" keyTimes="0;0.4318;0.4468;1" values="0;1;8;8"/><animate attributeName="opacity" dur="20s" repeatCount="indefinite" keyTimes="0;0.4318;0.4468;1" values="0;1;1;0"/></circle>
<circle cx="417.5" cy="90.5" r="0" fill="none" stroke="#56d364" stroke-width="1.4" opacity="0"><animate attributeName="r" dur="20s" repeatCount="indefinite" keyTimes="0;0.4338;0.4488;1" values="0;1;8;8"/><animate attributeName="opacity" dur="20s" repeatCount="indefinite" keyTimes="0;0.4338;0.4488;1" values="0;1;1;0"/></circle>
<circle cx="431.5" cy="48.5" r="0" fill="none" stroke="#56d364" stroke-width="1.4" opacity="0"><animate attributeName="r" dur="20s" repeatCount="indefinite" keyTimes="0;0.4465;0.4615;1" values="0;1;8;8"/><animate attributeName="opacity" dur="20s" repeatCount="indefinite" keyTimes="0;0.4465;0.4615;1" values="0;1;1;0"/></circle>
<circle cx="431.5" cy="90.5" r="0" fill="none" stroke="#56d364" stroke-width="1.4" opacity="0"><animate attributeName="r" dur="20s" repeatCount="indefinite" keyTimes="0;0.4495;0.4645;1" values="0;1;8;8"/><animate attributeName="opacity" dur="20s" repeatCount="indefinite" keyTimes="0;0.4495;0.4645;1" values="0;1;1;0"/></circle>
<circle cx="445.5" cy="76.5" r="0" fill="none" stroke="#56d364" stroke-width="1.4" opacity="0"><animate attributeName="r" dur="20s" repeatCount="indefinite" keyTimes="0;0.4642;0.4792;1" values="0;1;8;8"/><animate attributeName="opacity" dur="20s" repeatCount="indefinite" keyTimes="0;0.4642;0.4792;1" values="0;1;1;0"/></circle>
<circle cx="445.5" cy="90.5" r="0" fill="none" stroke="#56d364" stroke-width="1.4" opacity="0"><animate attributeName="r" dur="20s" repeatCount="indefinite" keyTimes="0;0.4652;0.4802;1" values="0;1;8;8"/><animate attributeName="opacity" dur="20s" repeatCount="indefinite" keyTimes="0;0.4652;0.4802;1" values="0;1;1;0"/></circle>
<circle cx="459.5" cy="34.5" r="0" fill="none" stroke="#56d364" stroke-width="1.4" opacity="0"><animate attributeName="r" dur="20s" repeatCount="indefinite" keyTimes="0;0.4769;0.4919;1" values="0;1;8;8"/><animate attributeName="opacity" dur="20s" repeatCount="indefinite" keyTimes="0;0.4769;0.4919;1" values="0;1;1;0"/></circle>
<circle cx="459.5" cy="48.5" r="0" fill="none" stroke="#56d364" stroke-width="1.4" opacity="0"><animate attributeName="r" dur="20s" repeatCount="indefinite" keyTimes="0;0.4779;0.4929;1" values="0;1;8;8"/><animate attributeName="opacity" dur="20s" repeatCount="indefinite" keyTimes="0;0.4779;0.4929;1" values="0;1;1;0"/></circle>
<circle cx="459.5" cy="62.5" r="0" fill="none" stroke="#56d364" stroke-width="1.4" opacity="0"><animate attributeName="r" dur="20s" repeatCount="indefinite" keyTimes="0;0.4789;0.4939;1" values="0;1;8;8"/><animate attributeName="opacity" dur="20s" repeatCount="indefinite" keyTimes="0;0.4789;0.4939;1" values="0;1;1;0"/></circle>
<circle cx="473.5" cy="104.5" r="0" fill="none" stroke="#56d364" stroke-width="1.4" opacity="0"><animate attributeName="r" dur="20s" repeatCount="indefinite" keyTimes="0;0.4976;0.505;1" values="0;1;8;8"/><animate attributeName="opacity" dur="20s" repeatCount="indefinite" keyTimes="0;0.4976;0.505;1" values="0;1;1;0"/></circle>
<circle cx="487.5" cy="20.5" r="0" fill="none" stroke="#56d364" stroke-width="1.4" opacity="0"><animate attributeName="r" dur="20s" repeatCount="indefinite" keyTimes="0;0.5;0.499;1" values="0;1;8;8"/><animate attributeName="opacity" dur="20s" repeatCount="indefinite" keyTimes="0;0.5;0.499;1" values="0;1;1;0"/></circle>
<circle cx="487.5" cy="76.5" r="0" fill="none" stroke="#56d364" stroke-width="1.4" opacity="0"><animate attributeName="r" dur="20s" repeatCount="indefinite" keyTimes="0;0.504;0.503;1" values="0;1;8;8"/><animate attributeName="opacity" dur="20s" repeatCount="indefinite" keyTimes="0;0.504;0.503;1" values="0;1;1;0"/></circle>
<circle cx="487.5" cy="90.5" r="0" fill="none" stroke="#56d364" stroke-width="1.4" opacity="0"><animate attributeName="r" dur="20s" repeatCount="indefinite" keyTimes="0;0.505;0.504;1" values="0;1;8;8"/><animate attributeName="opacity" dur="20s" repeatCount="indefinite" keyTimes="0;0.505;0.504;1" values="0;1;1;0"/></circle>
</g>
<text x="20" y="140" fill="#8b949e" font-size="9" letter-spacing="0.5">@Adarshh18 &#183; 177 contributions this year</text>
<g id="jet">
  <g transform="translate(0,0)">
    <polygon points="0,-15 7,5 3,3 -3,3 -7,5" fill="#58a6ff" stroke="#1f6feb" stroke-width="1"/>
    <polygon points="-7,5 -12,11 -3,6" fill="#388bfd"/>
    <polygon points="7,5 12,11 3,6" fill="#388bfd"/>
    <circle cx="0" cy="-4" r="2" fill="#c9e6ff"/>
    <polygon points="-2.5,6 2.5,6 0,13" fill="#f0883e">
      <animate attributeName="opacity" values="0.5;1;0.6;1" dur="0.15s" repeatCount="indefinite"/>
    </polygon>
  </g>
  <animateTransform attributeName="transform" attributeType="XML" type="translate" dur="20s" repeatCount="indefinite" keyTimes="0;0.5;1" values="35.00,140.00;481.00,140.00;35.00,140.00"/>
</g>
</svg>